<svg xmlns="http://www.w3.org/2000/svg" viewBox="0 0 290.5 52.6" enable-background="new 0 0 290.5 52.6"><path fill="#fff" d="M4.3 31v20.8h-4.3v-51.1h17.4c2.8 0 5.3.4 7.4 1.1 2.2.8 4 1.8 5.5 3.2 1.5 1.3 2.5 3 3.3 4.8.7 1.9 1.1 3.9 1.1 6.2 0 2.4-.4 4.5-1.1 6.3s-1.8 3.4-3.3 4.7c-1.4 1.3-3.2 2.3-5.4 3-2.2.7-4.6 1-7.5 1h-13.1zm0-3.6h13.1c2.3 0 4.2-.3 5.9-.9 1.6-.6 3-1.4 4-2.4s1.8-2.2 2.3-3.6c.5-1.4.7-2.9.7-4.5s-.2-3.1-.7-4.5c-.5-1.4-1.3-2.7-2.3-3.7-1-1.1-2.4-1.9-4-2.5-1.6-.6-3.6-.9-5.9-.9h-13.1v23zM77.5 30.6h-14.9v21.3h-4.4v-51.2h16.6c2.7 0 5.1.3 7.2 1 2.1.7 4 1.6 5.5 2.9 1.5 1.3 2.7 2.9 3.5 4.7.8 1.9 1.2 4 1.2 6.5 0 1.7-.3 3.3-.8 4.8s-1.2 2.8-2.2 4c-.9 1.2-2.1 2.2-3.4 3.1-1.3.9-2.7 1.5-4.3 2l12.8 21.8v.5h-4.6l-12.2-21.4zm-14.9-3.7h13.3c2 0 3.7-.3 5.3-.9 1.5-.6 2.8-1.4 3.8-2.4s1.8-2.2 2.3-3.6c.5-1.3.8-2.7.8-4.2 0-1.8-.3-3.3-.8-4.7s-1.4-2.6-2.5-3.6-2.5-1.7-4.1-2.3-3.7-.8-5.8-.8h-12.3v22.5zM181.6 22.4l14.4-21.7h5.2l-16.9 25.2 17.5 25.9h-5.2l-14.9-22.4-15 22.4h-5.1l17.4-25.9-17-25.2h5.2l14.4 21.7zM230.3 51.9h-4.3v-51.2h4.3v51.2zM286.2 39.3c0-1.4-.2-2.7-.7-3.7s-1.2-2.1-2.3-3c-1.1-.9-2.5-1.7-4.3-2.5-1.8-.8-4-1.5-6.7-2.2-2.6-.7-4.9-1.5-7-2.4-2.1-.9-3.8-1.9-5.3-3-1.4-1.1-2.6-2.5-3.3-4-.8-1.5-1.2-3.3-1.2-5.3s.4-3.8 1.3-5.4 2-3 3.6-4.2 3.3-2.1 5.4-2.7c2.1-.6 4.4-1 6.9-1 2.7 0 5.1.4 7.3 1.2 2.2.8 4 1.9 5.5 3.3s2.7 3 3.5 4.9c.8 1.9 1.2 3.8 1.2 6h-4.4c0-1.7-.3-3.2-.9-4.6-.6-1.4-1.4-2.6-2.6-3.7-1.1-1-2.5-1.8-4.1-2.4-1.6-.6-3.5-.9-5.6-.9s-4 .3-5.6.8c-1.6.5-2.9 1.2-4 2-1.1.9-1.9 1.9-2.4 3-.6 1.1-.8 2.4-.8 3.7 0 1.2.2 2.3.7 3.4.5 1 1.2 2 2.3 2.9s2.5 1.7 4.3 2.5c1.8.8 3.9 1.5 6.5 2.2 2.7.8 5.1 1.6 7.2 2.5 2.1.9 3.9 1.9 5.3 3.1 1.5 1.2 2.6 2.6 3.3 4.2.8 1.6 1.1 3.4 1.1 5.4 0 2.1-.4 4-1.3 5.6s-2.1 3.1-3.7 4.2-3.4 2-5.6 2.6-4.5.9-7 .9c-1.5 0-3.1-.1-4.6-.4s-3-.7-4.4-1.2-2.7-1.2-4-2c-1.2-.8-2.3-1.8-3.2-2.9-.9-1.1-1.6-2.4-2.1-3.9s-.8-3.1-.8-4.9h4.3c0 2.2.4 4 1.3 5.5s2 2.7 3.4 3.6 3 1.6 4.7 2c1.8.4 3.5.6 5.3.6 2 0 3.8-.2 5.4-.7s3-1.1 4.2-2 2.1-1.9 2.7-3c.9-1.3 1.2-2.6 1.2-4.1zM117.8 33.9l10.2-27.9 10.3 27.9 1.4 3.6 5.3 14.4h4.5l-19.4-51.2h-4.1l-19.4 51.2h4.6l5.2-14.4"/></svg>